<?xml version="1.0" encoding="UTF-8" standalone="no"?>
<!-- Created with Inkscape (http://www.inkscape.org/) -->

<svg
   width="75.085243mm"
   height="133.32465mm"
   viewBox="0 0 75.085243 133.32465"
   version="1.1"
   id="svg1"
   xml:space="preserve"
   xmlns:inkscape="http://www.inkscape.org/namespaces/inkscape"
   xmlns:sodipodi="http://sodipodi.sourceforge.net/DTD/sodipodi-0.dtd"
   xmlns="http://www.w3.org/2000/svg"
   xmlns:svg="http://www.w3.org/2000/svg"><sodipodi:namedview
     id="namedview1"
     pagecolor="#ffffff"
     bordercolor="#000000"
     borderopacity="0.25"
     inkscape:showpageshadow="2"
     inkscape:pageopacity="0.0"
     inkscape:pagecheckerboard="0"
     inkscape:deskcolor="#d1d1d1"
     inkscape:document-units="mm"
     showgrid="true"><inkscape:grid
       type="axonomgrid"
       id="grid1"
       units="mm"
       originx="-57.720175"
       originy="-126.67535"
       spacingx="0.99999998"
       spacingy="1"
       empcolor="#0099e5"
       empopacity="0.30196078"
       color="#0099e5"
       opacity="0.14901961"
       empspacing="5"
       dotted="false"
       gridanglex="30"
       gridanglez="30"
       enabled="true"
       visible="true" /><inkscape:page
       x="0"
       y="0"
       width="75.085243"
       height="133.32465"
       id="page2"
       margin="0"
       bleed="0" /></sodipodi:namedview><defs
     id="defs1" /><g
     inkscape:label="Layer 1"
     inkscape:groupmode="layer"
     id="layer1"
     transform="translate(-57.720172,-126.67534)"><g
       id="g7"><path
         style="fill:#aa704e;fill-opacity:1;stroke-width:0.559999;-inkscape-stroke:none"
         d="m 64.951903,242.49999 v -5.83334 l 30.310887,17.5 2e-6,5.83334 z"
         id="path1"
         sodipodi:nodetypes="ccccc" /><path
         style="fill:#844825;fill-opacity:1;stroke-width:0.559999;-inkscape-stroke:none"
         d="m 125.57368,242.49999 v -5.83334 l -30.310887,17.5 -10e-7,5.83334 z"
         id="path2"
         sodipodi:nodetypes="ccccc" /><path
         style="fill:#83a510;fill-opacity:1;stroke-width:0.559999;-inkscape-stroke:none"
         d="m 64.951901,236.66666 30.31089,-17.5 30.310889,17.5 -30.310889,17.49999 z"
         id="path3" /><path
         id="path4-8"
         style="fill:#bf6b36;fill-opacity:1;stroke-width:0.233426;-inkscape-stroke:none"
         d="m 95.262743,171.24989 c -2.083282,0 -5.412649,1.41917 -5.41265,4.25714 0,0.0361 0.0028,0.0709 0.0038,0.10647 h -0.0038 v 60.12934 0.21295 h 0.0078 c 0.16181,2.69577 3.374483,3.0442 5.404899,3.0442 2.030415,0 5.242758,-0.34844 5.404578,-3.0442 h 0.008 v -0.21295 -60.12934 h -0.003 c 8.3e-4,-0.0356 0.003,-0.0704 0.003,-0.10647 0,-2.83797 -3.329044,-4.25714 -5.412328,-4.25714 z"
         sodipodi:nodetypes="sscccccscccccsss" /><g
         id="g6"
         transform="matrix(1.0578253,0,0,1.0578253,-5.5085978,-15.093603)"><ellipse
           style="fill:#658009;fill-opacity:1;stroke-width:0.479999;-inkscape-stroke:none"
           id="ellipse5"
           cx="95.262794"
           cy="169.50963"
           rx="35.490383"
           ry="35.490379" /><path
           id="path5"
           style="fill:#86ab0f;fill-opacity:1;stroke-width:0.479999;-inkscape-stroke:none"
           d="m 95.262794,134.01925 a 35.490382,35.49038 0 0 0 -28.334705,14.26994 35.490382,35.49038 0 0 0 -2.825667,13.72061 35.490382,35.49038 0 0 0 35.490339,35.49034 35.490382,35.49038 0 0 0 28.335229,-14.27045 35.490382,35.49038 0 0 0 2.82515,-13.72009 35.490382,35.49038 0 0 0 -35.490346,-35.49035 z" /></g></g></g></svg>
